<svg width="757" height="837.3" xmlns="http://www.w3.org/2000/svg" xmlns:xlink="http://www.w3.org/1999/xlink"><defs><symbol viewBox="0 0 50 50" id="icon-circle-arrow-next">
    <path d="M25,50C11.2,50,0,38.8,0,25S11.2,0,25,0s25,11.2,25,25S38.8,50,25,50z M25,2C12.3,2,2,12.3,2,25s10.3,23,23,23
		s23-10.3,23-23S37.7,2,25,2z" />
<path d="M36.4,24.4L29,17c-0.4-0.4-1-0.4-1.4,0s-0.4,1,0,1.4l5.7,5.7h-19c-0.6,0-1,0.5-1,1s0.4,1,1,1h18.9l-5.6,5.6
	c-0.4,0.4-0.4,1,0,1.4c0.2,0.2,0.5,0.3,0.7,0.3s0.5-0.1,0.7-0.3l7.4-7.4C36.8,25.4,36.8,24.8,36.4,24.4L36.4,24.4z" />
</symbol><symbol viewBox="0 0 50 50" id="icon-circle-arrow-prev">
    <defs>
        <style>#icon-circle-arrow-prev .cls-1{fill:none;}</style>
    </defs>
    <g>
        <circle class="cls-1" cx="25" cy="25" r="25" />
        <path class="cls-2" d="M25,0c13.79,0,25,11.21,25,25s-11.21,25-25,25S0,38.79,0,25,11.21,0,25,0Zm0,48c12.68,0,23-10.32,23-23S37.68,2,25,2,2,12.32,2,25s10.32,23,23,23Z" />
    </g>
    <path class="cls-2" d="M13.62,25.59l7.39,7.39c.39,.39,1.02,.39,1.41,0s.39-1.02,0-1.41l-5.74-5.74h18.99c.55,0,1-.45,1-1s-.45-1-1-1H16.79l5.63-5.63c.39-.39,.39-1.02,0-1.41-.2-.2-.45-.29-.71-.29s-.51,.1-.71,.29l-7.39,7.39c-.39,.39-.39,1.02,0,1.41h0Z" />
</symbol><symbol viewBox="0 0 13.924 25" id="icon-facebook">
    <path d="M6832.138,8986.85V8991H6828v4.32h4.138V9007h5.225v-11.678h3.775s.333-2.146.514-4.348h-4.259v-3.93a1.257,1.257,0,0,1,1.208-1h3.323V8982h-4.048C6832.017,8982,6832.138,8986.209,6832.138,8986.85Z" transform="translate(-6828 -8982)" />
</symbol><symbol viewBox="0 0 25 25" id="icon-instagram">
    <path d="M9724.238,8970h-9.449a7.777,7.777,0,0,0-7.789,7.763v9.448a7.777,7.777,0,0,0,7.789,7.789h9.449a7.779,7.779,0,0,0,7.762-7.789v-9.448a7.779,7.779,0,0,0-7.762-7.763Zm2.84,5.878a.961.961,0,0,0-.955-.928.942.942,0,1,0,0,1.884A.967.967,0,0,0,9727.078,8975.877Zm-7.565.423a6.239,6.239,0,1,0,4.36,1.827A6.182,6.182,0,0,0,9719.513,8976.3Zm0,10.235a4.05,4.05,0,1,1,2.841-6.89,3.933,3.933,0,0,1,1.21,2.839,4.083,4.083,0,0,1-4.051,4.051Zm10.35.675a5.665,5.665,0,0,1-5.624,5.652h-9.449a5.663,5.663,0,0,1-5.651-5.652v-9.448a5.667,5.667,0,0,1,5.651-5.626h9.449a5.669,5.669,0,0,1,5.624,5.626Z" transform="translate(-9707 -8969.999)" />
</symbol><symbol viewBox="0 0 20 25" id="icon-linkedin">
<path d="M2.4,2.5c1.3,0,2.4,1.1,2.4,2.4S3.7,7.3,2.4,7.3S0,6.2,0,4.9l0,0C0,3.6,1.1,2.5,2.4,2.5z" />
<path d="M3.8,22.5H1c-0.4,0-0.7-0.3-0.7-0.6v-12c0-0.4,0.3-0.7,0.7-0.7c0,0,0,0,0,0h2.8c0.4,0,0.7,0.3,0.6,0.7v12
	C4.4,22.2,4.2,22.5,3.8,22.5z" />
<path d="M20,13.4c0-2.5-2-4.5-4.5-4.5c0,0,0,0,0,0h-0.7c-1.3,0-2.6,0.6-3.3,1.7c-0.1,0.1-0.2,0.2-0.2,0.4h-0.1V9.4
	c0-0.1-0.1-0.3-0.3-0.3l0,0H7.3c-0.1,0-0.3,0.1-0.3,0.3v12.8c0,0.1,0.1,0.3,0.3,0.3h3.6c0.1,0,0.3-0.1,0.3-0.3l0,0v-7.4
	c0-1.3,1-2.3,2.3-2.3c0.6,0,1.2,0.2,1.7,0.7c0.4,0.4,0.7,1,0.7,1.6v7.4c0,0.1,0.1,0.3,0.3,0.3l0,0h3.6c0.1,0,0.3-0.1,0.3-0.3l0,0
	L20,13.4L20,13.4z" />
</symbol><symbol fill-rule="evenodd" viewBox="0 0 24 24" id="icon-search">
    <path d="M15.853 16.56c-1.683 1.517-3.911 2.44-6.353 2.44-5.243 0-9.5-4.257-9.5-9.5s4.257-9.5 9.5-9.5 9.5 4.257 9.5 9.5c0 2.442-.923 4.67-2.44 6.353l7.44 7.44-.707.707-7.44-7.44zm-6.353-15.56c4.691 0 8.5 3.809 8.5 8.5s-3.809 8.5-8.5 8.5-8.5-3.809-8.5-8.5 3.809-8.5 8.5-8.5z" />
</symbol><symbol id="icon-twitter" viewBox="0 0 25 25">
<path d="M0,20.4c6.8,4.3,15.9,2.3,20.2-4.6c1.5-2.3,2.3-5,2.3-7.8V7.4c1-0.7,1.8-1.6,2.5-2.6c-0.9,0.4-1.9,0.6-2.9,0.8
	l0,0c0.1-0.1,2-1.3,2.2-2.9c-0.8,0.4-1.6,0.8-2.5,1c-0.2,0.1-0.5,0.2-0.8,0.2c-1-1.1-2.3-1.6-3.8-1.6c-2.8,0-5.1,2.3-5.1,5.1
	c0,0.4,0,0.8,0.1,1.2C8.2,8.3,4.4,6.4,1.8,3.3c0,0-2.4,3.4,1.5,6.8C2.5,10.1,1.7,9.8,1,9.4c-0.1,2.5,1.6,4.7,4.1,5.1
	c-0.7,0.2-1.5,0.2-2.3,0.1c0.6,2.1,2.5,3.5,4.7,3.6C5.4,20,2.7,20.8,0,20.4L0,20.4z" />
</symbol><symbol id="icon-youtube" viewBox="0 0 757 533.3">
<path d="M741.2,83.3L741.2,83.3c-8.7-32.8-34.4-58.6-66.9-67.4C615.2,0,378.5,0,378.5,0S141.8,0,82.7,15.9
	c-32.6,8.8-58.2,34.6-66.9,67.4C0,142.7,0,266.7,0,266.7s0,124,15.8,183.4c8.7,32.8,34.4,58.6,66.9,67.4
	c59,15.9,295.7,15.9,295.7,15.9s236.7,0,295.8-15.9c32.6-8.8,58.2-34.6,66.9-67.4C757,390.6,757,266.7,757,266.7
	S757,142.7,741.2,83.3z M301.1,379.2V154.1l197.9,112.6L301.1,379.2z" />
</symbol></defs></svg>