<svg width="30" height="30" viewBox="0 0 30 30" xmlns="http://www.w3.org/2000/svg">
    <path d="M15.0026 2.15021C16.7773 2.1546 18.2623 3.38446 18.6569 5.03888H25.1783C25.2449 5.0389 25.3095 5.04783 25.3717 5.06232H28.0895C28.5587 5.06244 28.9388 5.44277 28.9391 5.91193C28.9391 6.38129 28.5588 6.76141 28.0895 6.76154H26.028V20.4529C26.028 21.7256 24.9959 22.7576 23.7233 22.7576H19.4957L21.525 25.8016C21.7851 26.1921 21.6801 26.7199 21.2897 26.9803C20.8993 27.2405 20.3715 27.1349 20.111 26.7449L17.4528 22.7576H12.5856L9.92053 27.4217C9.68758 27.829 9.16785 27.9708 8.76038 27.7381C8.35315 27.5053 8.21168 26.9863 8.44397 26.5789L10.6276 22.7576H6.27112C4.99858 22.7575 3.96741 21.7255 3.96741 20.4529V6.76154H1.91077C1.44132 6.76154 1.06116 6.38137 1.06116 5.91193C1.0614 5.44269 1.44148 5.06232 1.91077 5.06232H4.62366C4.68583 5.04785 4.75042 5.03888 4.81702 5.03888H11.3463C11.7378 3.38242 13.2246 2.15029 15.0006 2.15021H15.0026ZM5.66663 20.4529C5.66663 20.7866 5.93745 21.0573 6.27112 21.0574H23.7233C24.0571 21.0574 24.3278 20.7867 24.3278 20.4529V6.76154H5.66663V20.4529ZM14.9987 3.84943C14.1733 3.85025 13.4633 4.33757 13.1364 5.03888H16.8629C16.5337 4.33906 15.8248 3.85155 14.9987 3.84943Z" />
</svg>
