<svg xmlns="http://www.w3.org/2000/svg" version="1.1" viewBox="0 0 12.1 11">
  <path d="M2.6,1.8l-1,4.2c.3,0,.5-.2.8-.2h7.2c.3,0,.6,0,.8.2l-.3-1.4c0-.3,0-.5.4-.6.3,0,.5,0,.6.4l.7,2.8c.2.4.3.8.3,1.2,0,1.4-1.1,2.6-2.4,2.6h-3.6c-.3,0-.5-.2-.5-.5s.2-.5.5-.5h3.6c.8,0,1.4-.7,1.4-1.6s0-.5-.2-.8c-.3-.5-.7-.8-1.3-.8H2.4c-.5,0-1,.3-1.3.8-.1.2-.2.5-.2.8,0,.9.7,1.6,1.4,1.6h1.4c.3,0,.5.2.5.5s-.2.5-.5.5h-1.4c-1.4,0-2.4-1.2-2.4-2.6s0-.8.3-1.2L1.7,1.5h0c.2-.5.4-.9.7-1.2.3-.3.7-.4,1.1-.4h5c.4,0,.8,0,1.1.4.3.3.6.7.7,1.2h0s.2.8.2.8c0,.3,0,.5-.4.6-.3,0-.5,0-.6-.4l-.2-.7c-.1-.4-.3-.6-.4-.7-.1,0-.3-.2-.5-.2H3.6c-.2,0-.4,0-.5.2-.1.1-.3.3-.4.7ZM5.2,7.8c.3,0,.5.2.5.5v.6c0,.3-.2.5-.5.5s-.5-.2-.5-.5v-.6c0-.3.2-.5.5-.5ZM6.6,7.8c.3,0,.5.2.5.5v.6c0,.3-.2.5-.5.5s-.5-.2-.5-.5v-.6c0-.3.2-.5.5-.5ZM8,7.8c.3,0,.5.2.5.5v.6c0,.3-.2.5-.5.5s-.5-.2-.5-.5v-.6c0-.3.2-.5.5-.5ZM9.4,7.8c.3,0,.5.2.5.5v.6c0,.3-.2.5-.5.5s-.5-.2-.5-.5v-.6c0-.3.2-.5.5-.5Z"/>
</svg>
