<svg width="15" height="18" viewBox="0 0 15 18"  xmlns="http://www.w3.org/2000/svg">
    <path d="M9.57082 0.399517C9.88195 0.0881964 10.3746 0.0686476 10.7085 0.340923L10.773 0.39854L13.8306 3.4542C13.9901 3.61363 14.0796 3.83024 14.0796 4.05577C14.0796 4.28124 13.9901 4.49794 13.8306 4.65733L10.773 7.71202L10.7085 7.77061C10.3746 8.04277 9.88191 8.02329 9.57082 7.71202C9.23913 7.37996 9.2398 6.84166 9.57179 6.50987L12.0259 4.05577L9.57179 1.60167L9.5132 1.53721C9.24065 1.20354 9.25992 0.710914 9.57082 0.399517Z"/>
    <path d="M13.2306 3.20898L13.3176 3.21289C13.7462 3.25638 14.0802 3.61846 14.0802 4.05859C14.0802 4.49873 13.7462 4.86081 13.3176 4.9043L13.2306 4.9082H7.42107C6.32062 4.9082 5.24218 5.23478 4.32439 5.84668L4.32536 5.84766C3.40999 6.45905 2.69591 7.3287 2.27458 8.3457C1.85314 9.36321 1.74272 10.4842 1.9572 11.5635C2.17168 12.6423 2.70129 13.6342 3.48064 14.4131C4.25836 15.1903 5.25265 15.7212 6.3322 15.9355C7.41246 16.15 8.53457 16.0404 9.5529 15.6191C10.5713 15.1978 11.4407 14.4849 12.0519 13.5693L12.0529 13.5684L12.1642 13.3945C12.7048 12.5192 12.9914 11.5075 12.9914 10.4756C12.9915 10.0063 13.3726 9.62598 13.842 9.62598C14.3113 9.62604 14.6914 10.0063 14.6916 10.4756C14.6916 11.9114 14.2656 13.3179 13.465 14.5127L13.466 14.5137C12.6671 15.7103 11.5307 16.6399 10.2023 17.1895C8.87382 17.739 7.41147 17.8831 6.00212 17.6035C4.59225 17.3237 3.2949 16.63 2.27947 15.6152C1.26215 14.5985 0.569292 13.3038 0.289232 11.8945C0.00924565 10.4856 0.153215 9.02338 0.703294 7.69531C1.25352 6.3669 2.18631 5.23156 3.38103 4.43359H3.38201L3.60857 4.28809C4.75345 3.58423 6.07319 3.20898 7.42107 3.20898H13.2306Z"/>
</svg>
